# xmcd
#
# Track frame offsets:
#	150
#	17233
#	31171
#	44151
#	62862
#	77968
#	88999
#	99353
#	117266
#	130735
#	149454
#	163033
#	176491
#	195060
#
# Disc length: 2790 seconds
# Revision: 0
# Processed by: cddbd v1.5.2PL0 Copyright (c) Steve Scherf et al.
# Submitted via: dBpowerAMP V12.0
#
DISCID=bd0ae40e
DTITLE=Rex Dallas - Country Legend
DYEAR=2015
DGENRE=Country
TTITLE0=The Music Man
TTITLE1=Days Of Old Khancoban
TTITLE2=Paloma Blanca
TTITLE3=Danny Boy
TTITLE4=Dreamtime Soldier
TTITLE5=the Runaway Train
TTITLE6=It's A Small World
TTITLE7=Ballad Of Harry Morgan
TTITLE8=Someday My Day Will Come and I Can Live Forever
TTITLE9=Love For The Music
TTITLE10=I'm In Love Again
TTITLE11=Let The Children Sing
TTITLE12=Back To Wallerawang
TTITLE13=Sons Of Fathers
EXTD=
EXTT0=
EXTT1=
EXTT2=
EXTT3=
EXTT4=
EXTT5=
EXTT6=
EXTT7=
EXTT8=
EXTT9=
EXTT10=
EXTT11=
EXTT12=
EXTT13=
PLAYORDER=
